<svg width="280" height="153" viewBox="0 0 280 153" fill="none" xmlns="http://www.w3.org/2000/svg">
<path fill-rule="evenodd" clip-rule="evenodd" d="M70.0002 54.1875C70.0002 45.3855 83.0585 38.25 99.1668 38.25C115.275 38.25 128.333 45.3855 128.333 54.1875C128.333 62.9895 115.275 70.125 99.1668 70.125C83.0585 70.125 70.0002 62.9895 70.0002 54.1875ZM99.1668 51C95.9452 51 93.3335 52.4271 93.3335 54.1875C93.3335 55.9479 95.9452 57.375 99.1668 57.375C102.388 57.375 105 55.9479 105 54.1875C105 52.4271 102.388 51 99.1668 51Z" fill="#2D3648"/>
<path fill-rule="evenodd" clip-rule="evenodd" d="M23.3335 31.875C23.3335 21.3126 39.0035 12.75 58.3335 12.75H221.667C240.997 12.75 256.667 21.3126 256.667 31.875V121.125C256.667 131.687 240.997 140.25 221.667 140.25H58.3335C39.0035 140.25 23.3335 131.687 23.3335 121.125V31.875ZM58.3335 25.5C51.8902 25.5 46.6668 28.3542 46.6668 31.875V121.125C46.6668 123.859 49.816 126.191 54.2402 127.097L178.418 59.2422C182.974 56.7526 190.361 56.7526 194.917 59.2422L233.333 80.2339V31.875C233.333 28.3542 228.11 25.5 221.667 25.5H58.3335ZM233.333 98.2651L186.668 72.7656L86.5002 127.5H221.667C228.11 127.5 233.333 124.646 233.333 121.125V98.2651Z" fill="#2D3648"/>
</svg>
